<?xml version="1.0" encoding="UTF-8"?>
<svg width="115px" height="42px" viewBox="0 0 115 42" version="1.1" xmlns="http://www.w3.org/2000/svg" xmlns:xlink="http://www.w3.org/1999/xlink">
    <title>位图</title>
    <g id="页面-1" stroke="none" stroke-width="1" fill="none" fill-rule="evenodd">
        <g id="位图" fill-rule="nonzero">
            <g id="编组" transform="translate(57.187500, 21.000000) scale(-1, 1) rotate(-180.000000) translate(-57.187500, -21.000000) ">
                <path d="M28.3347189,41.92921 C26.1361285,41.6657328 23.5741348,40.4755429 21.757118,38.8492529 C20.9667156,38.1405902 20.9394604,38.1224193 20.9122051,38.3586402 C20.894035,38.4858361 21.0121411,39.176328 21.1756726,39.8940761 C21.330119,40.6027388 21.43914,41.256889 21.4118848,41.3386577 C21.3573743,41.4658536 20.6941631,41.474939 14.1529025,41.4567682 L6.94843074,41.4295119 L6.5123467,41.2296327 C5.79462505,40.8934722 5.31311559,40.5118846 4.88611663,39.9395032 C4.41369226,39.3216947 4.22290549,38.7583987 3.8140767,36.7959481 C3.65963027,36.0509437 3.43250316,34.9879497 3.31439707,34.4337391 C3.19629098,33.8886139 2.7238666,31.6990279 2.27869747,29.5730398 C1.82444326,27.4470517 1.35201889,25.2392948 1.23391279,24.6669134 C1.10672161,24.0945319 0.815998921,22.7680607 0.588871816,21.7323229 C0.361744712,20.6874997 0.180043028,19.7789578 0.180043028,19.7062744 C0.180043028,19.5972494 0.697892826,19.5790786 3.45067333,19.5790786 C6.54868704,19.5790786 6.72130364,19.588164 6.8030694,19.7517015 C6.8575799,19.8425557 7.00294125,20.4421934 7.13013243,21.0872582 C7.2573236,21.7323229 7.41177004,22.4137294 7.45719546,22.6136086 C7.51170596,22.8044024 7.6025568,23.2586734 7.67523748,23.6130047 C7.83876899,24.5306321 8.51106522,27.5924184 8.58374589,27.7832122 C8.64734148,27.9285789 8.92897909,27.9376643 12.8173951,27.9376643 L16.9874488,27.9376643 L17.0237891,27.7377851 C17.0510444,27.6196746 17.0873847,27.347112 17.123725,27.1199766 C17.4598731,24.59423 18.8862314,22.232021 20.90312,20.8510373 C21.866139,20.1878017 22.6565413,19.8243849 23.8012619,19.5063952 C24.5825791,19.2883451 24.8097062,19.2701743 26.1633838,19.2701743 C27.8350393,19.2792597 28.7253775,19.4337119 30.0972252,19.9606662 C32.6501339,20.932806 35.0758514,22.9406837 36.6294008,25.3483198 C37.1654207,26.1660075 37.9739932,27.7922976 37.9739932,28.0285185 C37.9739932,28.192056 37.9194827,28.2102269 37.301697,28.2102269 L36.6203157,28.2102269 L36.1569764,27.2653433 C35.6936371,26.3386305 34.7487883,24.9758176 34.0855772,24.2671549 C32.4866024,22.5863523 30.1426507,21.2326249 28.0712515,20.7965247 C27.053722,20.5875601 25.1731096,20.5784747 24.3191117,20.7874393 C19.8038249,21.8867751 17.4235328,26.4658264 18.7136148,31.5264049 C19.8492503,35.9600895 23.6286453,39.6396843 27.8622945,40.4392012 C28.4619101,40.5482263 28.988845,40.5754825 29.9791191,40.5482263 C31.1420099,40.5027992 31.3963923,40.4664575 32.1595393,40.2211512 C33.0226223,39.9395032 34.0855772,39.3489509 34.6942778,38.8219966 C35.5391907,38.0860776 36.4113587,36.8504606 36.8383577,35.7511249 C37.083655,35.124231 37.4833987,33.2344637 37.3925478,33.1345241 C37.3562075,33.1072679 33.7948545,33.0800116 29.4703544,33.0709262 C22.5929457,33.0709262 21.6026715,33.0527554 21.5299909,32.9346449 C21.4027997,32.7347657 21.2301831,31.85348 21.2937787,31.6990279 C21.3392041,31.5900029 22.5293501,31.571832 30.0427147,31.5900029 L38.7462254,31.6172591 L38.7462254,32.8437907 C38.7371403,33.8159306 38.7008,34.2520307 38.5281834,34.9334372 C38.1011844,36.6687522 37.2744417,38.1860173 36.120636,39.3489509 C34.1310026,41.3477432 31.3327967,42.2744559 28.3347189,41.92921 Z M19.0770181,35.8510645 C19.0770181,35.8056374 18.9134866,35.4967331 18.7226998,35.1605726 C18.522828,34.8244121 18.2321053,34.2338599 18.0685738,33.8341014 L17.768766,33.1163533 L13.7349886,33.1163533 L9.70121125,33.1163533 L9.73755159,33.370745 C9.91016819,34.3610557 10.1372953,35.1969143 10.2917417,35.4240498 C10.64606,35.9237479 10.6914854,35.9237479 15.0614109,35.9328333 C17.341767,35.9328333 19.0770181,35.8964916 19.0770181,35.8510645 Z" id="形状" fill="#0166B4"></path>
                <path d="M51.6924703,38.5766903 L51.6924703,37.7590025 L48.3673295,37.7317463 L45.0421887,37.70449 L44.7787213,37.4046712 L44.5152538,37.1048524 L44.533424,35.3604519 L44.5606792,33.6160514 L45.4691877,33.6160514 L46.3776961,33.6160514 L46.4049513,34.778985 L46.4322066,35.9328333 L52.6918296,35.9328333 L58.9605377,35.9328333 L58.9605377,34.8516684 C58.9605377,34.0975786 58.996878,33.7432472 59.0786438,33.6887347 C59.2058349,33.5797097 60.5685976,33.5342826 60.8048098,33.6160514 C60.941086,33.6705639 60.9592562,33.8431868 60.9592562,35.2605122 C60.9592562,37.0412544 60.8865755,37.3683295 60.4232362,37.6045504 C60.187024,37.7317463 59.6782593,37.7499171 56.9709042,37.7499171 L53.7911248,37.7499171 L53.7638695,38.549434 L53.7366143,39.3398655 L52.7190848,39.3671218 L51.6924703,39.394378 L51.6924703,38.5766903 Z" id="路径" fill="#000000"></path>
                <path d="M86.0340885,38.2587006 C86.0340885,37.313817 86.0068333,37.1230232 85.8887272,37.0775961 C85.8069614,37.0503398 84.4441988,37.0230836 82.8633942,37.0230836 L79.9743374,37.0230836 L79.7381252,36.8050335 C79.5745937,36.6505814 79.4928279,36.4597876 79.4474025,36.1054562 C79.4201472,35.8328937 79.4110622,33.5342826 79.4292323,30.9994506 C79.4564876,27.1563182 79.4837428,26.3658868 79.5927638,26.2932034 C79.6654445,26.2477763 81.0736326,26.2114346 82.7180328,26.2114346 C84.3715181,26.2114346 85.7887913,26.2114346 85.870557,26.2114346 C86.0068333,26.2114346 86.0250034,26.0388117 86.0522587,24.6305717 C86.079514,23.0860504 86.088599,23.0406233 86.3066411,22.795317 C86.7608953,22.3047043 86.7699804,22.3047043 91.4397136,22.3047043 C96.6363818,22.3047043 96.1367021,22.1502522 96.1003618,23.7311152 L96.0731066,24.7941092 L95.2281937,25.1302697 C93.9017714,25.6663095 94.0289626,25.6935657 94.0289626,24.9031343 L94.0289626,24.2126424 L91.0763103,24.2126424 L88.1236579,24.2126424 L88.1236579,25.2120385 C88.1236579,26.0933242 88.1418281,26.2114346 88.2871894,26.2296055 C88.3689552,26.2386909 89.8316537,26.2477763 91.5305645,26.2477763 L94.6194931,26.2568617 L94.6467483,31.4082945 L94.6649185,36.5506418 L94.3832809,36.7868627 L94.1016433,37.0230836 L91.2580119,37.0230836 C89.6953775,37.0230836 88.350785,37.0503398 88.2690192,37.0775961 C88.1509131,37.1230232 88.1236579,37.313817 88.1236579,38.2587006 L88.1236579,39.3852926 L87.0788732,39.3852926 L86.0340885,39.3852926 L86.0340885,38.2587006 Z M92.557179,35.1514872 C92.7479657,35.0969747 92.7570508,35.060633 92.7570508,33.8795285 L92.7570508,32.6620823 L90.4403544,32.6620823 L88.1236579,32.6620823 L88.1236579,33.8886139 L88.1236579,35.1151455 L90.1950571,35.1424018 C91.3306926,35.1514872 92.2755414,35.1696581 92.3027966,35.1878289 C92.3300519,35.1969143 92.4390729,35.1787435 92.557179,35.1514872 Z M86.0340885,33.8886139 L86.0340885,32.6620823 L83.7173921,32.6620823 L81.4006956,32.6620823 L81.4006956,33.8886139 L81.4006956,35.1151455 L83.7173921,35.1151455 L86.0340885,35.1151455 L86.0340885,33.8886139 Z M86.0159184,29.4640147 L85.9886631,28.1647998 L83.6992219,28.1375435 L81.4097807,28.1193727 L81.3825254,29.3459043 C81.3643553,30.0182253 81.3734403,30.617863 81.3825254,30.6632901 C81.4006956,30.7178026 82.2910338,30.7541443 83.7264772,30.7541443 L86.0431736,30.7541443 L86.0159184,29.4640147 Z M92.7570508,29.4367585 L92.7570508,28.1193727 L90.4676096,28.1375435 L88.1690833,28.1647998 L88.1418281,29.4640147 L88.1145728,30.7541443 L90.4403544,30.7541443 L92.7570508,30.7541443 L92.7570508,29.4367585 Z" id="形状" fill="#000000"></path>
                <polygon id="路径" fill="#000000" points="69.0449811 36.3416771 69.0449811 33.934041 65.5290535 33.9158702 62.0040409 33.8886139 62.0040409 32.8892178 62.0040409 31.8898217 65.5290535 31.8625654 69.0449811 31.8443946 69.0268109 28.2738248 68.9995557 24.7123405 66.1831796 24.6669134 63.3668035 24.6214863 63.3668035 23.6675172 63.3668035 22.7135482 70.2078719 22.686292 77.0489403 22.6681211 77.021685 23.640261 76.9944298 24.6214863 74.2053089 24.6487425 71.407103 24.6669134 71.407103 28.255654 71.407103 31.8443946 74.8866902 31.8625654 78.3571924 31.8898217 78.3571924 32.8892178 78.3571924 33.8886139 74.8866902 33.9158702 71.407103 33.934041 71.3889328 36.3235063 71.3616776 38.7038862 70.2078719 38.7311424 69.0449811 38.7583987"></polygon>
                <path d="M99.9070121,38.6948007 C99.8706717,38.6584591 99.8434165,37.986138 99.8434165,37.1957066 L99.8434165,35.7602103 L98.7350362,35.732954 L97.6175709,35.7056978 L97.6175709,34.7517288 L97.6175709,33.7977597 L98.7441213,33.7705035 L99.8706717,33.7432472 L99.8161612,33.0436699 C99.7162253,31.7353696 99.2074606,30.6542047 98.2444417,29.6548085 L97.5721454,28.9734021 L97.5721454,27.9013226 C97.5721454,26.8383286 97.5721454,26.8383286 97.7811024,26.9019265 C98.1081654,27.0018661 98.7622915,27.4743079 99.3255667,28.0194331 C99.6162894,28.3010811 99.8434165,28.4646186 99.8434165,28.3919353 C99.8434165,28.3192519 99.8525016,26.9291828 99.8706717,25.3028927 L99.8888419,22.3501314 L100.79735,22.3501314 L101.705859,22.3501314 L101.733114,26.1932638 C101.742199,28.3010811 101.787625,30.0273107 101.83305,30.0273107 C101.86939,30.0273107 101.978411,29.945542 102.069262,29.8456024 C102.287304,29.6093815 103.132217,29.1187688 103.332089,29.1187688 C103.45928,29.1187688 103.47745,29.2641355 103.47745,30.2544462 L103.47745,31.3810382 L103.232153,31.5173195 C102.641622,31.8262238 101.923901,32.7892782 101.787625,33.4525138 L101.733114,33.7432472 L102.623452,33.7705035 L103.522876,33.7977597 L103.522876,34.7517288 L103.522876,35.7056978 L102.641622,35.732954 L101.751284,35.7602103 L101.733114,37.2320482 L101.705859,38.7038862 L100.842776,38.7311424 C100.361266,38.7402278 99.9433524,38.7311424 99.9070121,38.6948007 Z" id="路径" fill="#000000"></path>
                <path d="M104.722107,38.3858965 L104.485895,38.1951027 L104.458639,32.3168364 C104.431384,27.9285789 104.395044,26.3568013 104.313278,26.1024096 C104.167917,25.6753949 103.822683,25.2574656 103.368429,24.9758176 L103.023196,24.7577676 L103.023196,23.576663 C103.023196,22.9225129 103.059536,22.3955585 103.095877,22.3955585 C103.141302,22.3955585 103.413855,22.4773273 103.713662,22.5772669 C104.967404,23.0042816 105.894083,23.9945923 106.348337,25.3937469 C106.502783,25.8480179 106.520953,26.4113139 106.566379,31.2538423 L106.611804,36.6142397 L107.883716,36.6142397 L109.155628,36.6142397 L109.201053,29.8274315 L109.246479,23.0497087 L109.473606,22.8044024 C109.918775,22.3319606 110.045966,22.3047043 112.062855,22.3047043 C114.424977,22.3047043 114.306871,22.2229356 114.27053,23.7311152 L114.243275,24.7850238 L113.425617,25.1302697 C112.980448,25.3210635 112.562534,25.4755157 112.498939,25.4846011 C112.426258,25.4846011 112.380833,25.2756365 112.362662,24.875878 L112.335407,24.2580695 L111.817557,24.2308132 L111.290623,24.203557 L111.290623,31.1902444 C111.290623,38.1769318 111.290623,38.1769318 111.099836,38.3495548 C110.918134,38.5130923 110.709177,38.5221778 107.938226,38.549434 C105.040085,38.5766903 104.958319,38.5676049 104.722107,38.3858965 Z" id="路径" fill="#000000"></path>
                <path d="M47.3043747,35.233256 C47.1771835,35.1151455 47.231694,33.7795889 47.3679703,33.6705639 C47.449736,33.5978805 48.9669451,33.5797097 52.8371909,33.5887951 L58.1883055,33.6160514 L58.2155608,34.3792266 C58.2337309,34.9334372 58.2064757,35.1696581 58.1247099,35.2150851 C57.9884337,35.3059393 47.3861404,35.3241102 47.3043747,35.233256 Z" id="路径" fill="#000000"></path>
                <path d="M47.7404587,32.807449 C47.3043747,32.6166552 47.2407791,32.3622635 47.2407791,30.7541443 L47.2407791,29.3004772 L52.6918296,29.3004772 L58.1428801,29.3004772 L58.1428801,30.8086568 C58.1428801,31.7081133 58.1065398,32.3804343 58.0429442,32.4985448 C57.8158171,32.9164741 57.6341154,32.9346449 52.6736594,32.9346449 C49.0214556,32.9255595 47.9494156,32.8983032 47.7404587,32.807449 Z M56.2350124,31.072134 L56.2350124,30.6632901 L52.7463401,30.6632901 C49.6483264,30.6632901 49.2485827,30.6814609 49.2031573,30.8086568 C49.1304766,30.9994506 49.1304766,31.3446965 49.2122423,31.4173799 C49.2394976,31.4537216 50.8384724,31.4809778 52.7554252,31.4809778 L56.2350124,31.4809778 L56.2350124,31.072134 Z" id="形状" fill="#000000"></path>
                <path d="M46.041548,28.4373624 C45.9052717,28.3555936 45.7508253,28.2193123 45.6963148,28.1193727 C45.6418043,28.0194331 45.6054639,26.8837557 45.6054639,25.1302697 L45.6054639,22.3047043 L52.7190848,22.3228752 L59.8236207,22.3501314 L59.8236207,25.1847823 L59.8236207,28.0285185 L59.5692383,28.2738248 L59.323941,28.5282166 L52.8008506,28.5463874 C47.1771835,28.5645582 46.2505049,28.5463874 46.041548,28.4373624 Z M51.765151,26.6021077 L51.7924063,26.2114346 L49.6574115,26.2114346 L47.5133316,26.2114346 L47.5133316,26.5566806 C47.5133316,26.7474744 47.5405869,26.9382682 47.5769272,26.9746099 C47.6132675,27.0018661 48.5581163,27.020037 49.6846667,27.0109515 L51.7378958,26.9836953 L51.765151,26.6021077 Z M57.8703276,26.6202785 L57.8703276,26.2114346 L55.7807582,26.2114346 L53.6911889,26.2114346 L53.6911889,26.5566806 C53.6911889,26.7474744 53.7184441,26.9382682 53.7547844,26.9655244 C53.7820397,27.0018661 54.7268884,27.0291224 55.8443538,27.0291224 L57.8703276,27.0291224 L57.8703276,26.6202785 Z M51.7378958,24.4397779 L51.7378958,24.0763611 L49.6301562,24.0491048 L47.5133316,24.030934 L47.5133316,24.3761799 C47.5133316,24.5669737 47.5405869,24.7577676 47.5769272,24.7941092 C47.6132675,24.8213655 48.5581163,24.8395363 49.6846667,24.8304509 L51.7378958,24.8031946 L51.7378958,24.4397779 Z M57.8703276,24.4397779 L57.8703276,24.030934 L55.7807582,24.030934 L53.6911889,24.030934 L53.6911889,24.3761799 C53.6911889,24.5669737 53.7184441,24.7577676 53.7547844,24.7850238 C53.7820397,24.8213655 54.7268884,24.8486217 55.8443538,24.8486217 L57.8703276,24.8486217 L57.8703276,24.4397779 Z" id="形状" fill="#000000"></path>
                <path d="M0.0619369339,15.6996045 C-0.0470840763,15.5996649 -0.0016586554,15.2362481 0.116447439,15.190821 C0.298149123,15.1181377 114.052488,15.1090523 114.225105,15.1817356 C114.406806,15.2453336 114.424977,15.4997253 114.27053,15.6541774 C114.188764,15.7359462 101.369711,15.7632025 57.1435208,15.7632025 C25.7818102,15.7632025 0.0891921864,15.7359462 0.0619369339,15.6996045 Z" id="路径" fill="#000000"></path>
                <path d="M57.8249022,11.202322 C57.7976469,11.138724 57.7885618,9.1399318 57.7976469,6.76863737 L57.8249022,2.45306321 L58.5517089,2.45306321 L59.2785156,2.45306321 L59.2785156,6.85949156 L59.2785156,11.2659199 L58.5698791,11.2931762 C58.0611143,11.311347 57.8521574,11.2840908 57.8249022,11.202322 Z" id="路径" fill="#000000"></path>
                <polygon id="路径" fill="#000000" points="27.6169973 6.85949156 27.6169973 2.4984903 28.343804 2.4984903 29.0706107 2.4984903 29.0887809 4.43368461 29.1160361 6.3597935 31.0965845 6.38704976 33.0771328 6.4052206 33.0498776 6.97760201 33.0226223 7.54089801 31.042074 7.56815426 29.0615256 7.5863251 29.0887809 8.74925877 29.1160361 9.90310702 31.3418818 9.94853412 33.5677274 9.99396121 33.5677274 10.5845135 33.5677274 11.1750657 30.5969049 11.202322 27.6169973 11.2204928"></polygon>
                <path d="M41.2446235,10.5845135 L41.2446235,9.94853412 L41.8714943,9.94853412 L42.4983651,9.94853412 L42.5347055,10.4754884 C42.5619607,10.7571364 42.5619607,11.0478699 42.5437906,11.1114678 C42.5074502,11.1841511 42.2894082,11.2204928 41.8714943,11.2204928 L41.2446235,11.2204928 L41.2446235,10.5845135 Z" id="路径" fill="#000000"></path>
                <path d="M44.1881908,11.0932969 C44.1609355,11.029699 44.1518505,10.748051 44.1700206,10.4845739 L44.1972759,9.99396121 L44.860487,9.96670496 L45.5146131,9.9394487 L45.5146131,10.5845135 L45.5146131,11.2204928 L44.8786572,11.2204928 C44.4153179,11.2204928 44.2245311,11.1841511 44.1881908,11.0932969 Z" id="路径" fill="#000000"></path>
                <path d="M50.575005,11.1568949 C50.5386646,11.1296386 50.5114094,9.16718806 50.5114094,6.79589363 L50.5114094,2.4984903 L53.6911889,2.4984903 L56.8800534,2.4984903 L56.8527981,3.1072134 L56.8255429,3.72502191 L54.3907403,3.75227816 L51.9559378,3.770449 L51.983193,5.06966396 L52.0104483,6.3597935 L54.2181237,6.38704976 L56.4257992,6.4052206 L56.3985439,6.97760201 L56.3712887,7.54089801 L54.1908685,7.5863251 L52.0104483,7.6317522 L52.0104483,8.76742961 L52.0104483,9.90310702 L54.3998254,9.93036328 L56.7892026,9.94853412 L56.7619473,10.5663426 L56.7346921,11.1750657 L53.6821038,11.202322 C52.0104483,11.2114074 50.6113453,11.1932366 50.575005,11.1568949 Z" id="路径" fill="#000000"></path>
                <path d="M82.1638427,11.0932969 C82.1365874,11.029699 82.1275023,10.748051 82.1456725,10.4845739 L82.1729278,9.99396121 L82.8361389,9.96670496 L83.490265,9.9394487 L83.490265,10.5845135 L83.490265,11.2204928 L82.8543091,11.2204928 C82.3909698,11.2204928 82.200183,11.1841511 82.1638427,11.0932969 Z" id="路径" fill="#000000"></path>
                <path d="M74.2870747,10.6117697 C74.2507344,10.5845135 74.2234791,10.1484133 74.2234791,9.6578007 L74.2234791,8.76742961 L73.7237995,8.76742961 L73.2241198,8.76742961 L73.2241198,8.26773155 L73.2241198,7.76803349 L73.7147144,7.76803349 L74.2053089,7.76803349 L74.2416493,5.56936202 C74.2689045,3.03453004 74.3143299,2.88916333 74.9775411,2.58025908 C75.3772848,2.39855069 76.5220054,2.34403818 76.7491325,2.48940488 C76.8308983,2.53483198 76.8581535,2.71654037 76.8399833,3.00727378 L76.8127281,3.45245933 L76.3130485,3.49788642 C75.6044119,3.56148436 75.5862417,3.60691146 75.5862417,5.8873517 L75.5862417,7.76803349 L76.2221976,7.76803349 L76.8581535,7.76803349 L76.8581535,8.26773155 L76.8581535,8.76742961 L76.2221976,8.76742961 L75.5862417,8.76742961 L75.5862417,9.72139864 L75.5862417,10.6753677 L74.968456,10.6753677 C74.6232228,10.6753677 74.3143299,10.6481114 74.2870747,10.6117697 Z" id="路径" fill="#000000"></path>
                <path d="M62.3220188,8.83102755 C61.4407657,8.58572122 60.8502352,8.04059607 60.4050661,7.08662704 C60.1325135,6.51424563 60.1052583,6.38704976 60.1143434,5.58753286 C60.1234284,4.13386577 60.6594484,3.15264049 61.7587436,2.61660075 C62.2220829,2.38946527 62.3765293,2.36220901 63.1851018,2.36220901 C63.9936743,2.36220901 64.1481207,2.38946527 64.5569495,2.60751533 C65.2292458,2.96184669 65.9560525,3.84313236 65.9560525,4.31557416 C65.9560525,4.37008668 65.7107552,4.40642835 65.365522,4.40642835 C64.7840766,4.40642835 64.7659065,4.39734293 64.5842048,4.08843868 C64.0845252,3.24349468 62.7944432,3.08904256 62.0040409,3.77953442 C61.6769778,4.07026784 61.3408297,4.90612641 61.4498507,5.18777441 C61.4861911,5.29679944 61.8768497,5.31497028 63.8210577,5.31497028 L66.1377542,5.31497028 L66.1377542,5.70564331 C66.1377542,6.53241647 65.7289254,7.53181259 65.1656502,8.09510858 C64.4842689,8.77651503 63.2577825,9.0945047 62.3220188,8.83102755 Z M64.0209296,7.60449594 C64.3389075,7.37736046 64.820417,6.48698937 64.7386512,6.26893931 C64.7023109,6.15082886 64.4388434,6.13265802 63.1033361,6.13265802 C62.122147,6.13265802 61.4952762,6.16899969 61.4589358,6.22351221 C61.3771701,6.3597935 61.586127,6.95034575 61.8405094,7.29559169 C62.1494022,7.70443555 62.5309758,7.85888768 63.1851018,7.83163142 C63.5848455,7.81346059 63.8210577,7.74986265 64.0209296,7.60449594 Z" id="形状" fill="#000000"></path>
                <path d="M69.1085767,8.8582838 C68.2454937,8.64023374 67.5822826,8.06785233 67.1643687,7.17748124 C66.9281565,6.67778317 66.9099863,6.54150189 66.9099863,5.58753286 C66.9099863,4.69716177 66.9372416,4.47911171 67.1189433,4.0975241 C67.6367931,2.97093211 68.4544506,2.40763611 69.6718519,2.33495276 C71.2617417,2.24409856 72.3519518,3.02544462 72.7244402,4.5245388 L72.7880358,4.76984512 L72.1157396,4.76984512 L71.4343583,4.76984512 L71.3253372,4.41551377 C70.971019,3.23440927 69.3992994,2.97093211 68.6543225,3.97032823 C68.3000042,4.44277003 68.2000683,4.88795558 68.2454937,5.80558292 C68.2909191,6.8322353 68.5543866,7.37736046 69.1540021,7.68626472 C69.7172773,7.97699813 70.5712753,7.90431478 70.9619339,7.54089801 C71.1163803,7.38644588 71.298082,7.13205414 71.3616776,6.97760201 C71.4888688,6.68686859 71.4979538,6.67778317 72.0884843,6.67778317 C72.7880358,6.67778317 72.8334612,6.74138111 72.6335894,7.31376252 C72.2974413,8.27681697 71.4434433,8.83102755 70.1806166,8.9037109 C69.7808729,8.92188174 69.2993635,8.9037109 69.1085767,8.8582838 Z" id="路径" fill="#000000"></path>
                <path d="M80.4467618,8.84011296 C80.037933,8.69474626 79.6836147,8.42218368 79.4019771,8.02242523 L79.1385096,7.66809388 L79.0839991,8.05876691 C79.0476588,8.27681697 79.0385737,8.51303787 79.0567439,8.58572122 C79.0749141,8.69474626 78.956808,8.73108793 78.4752985,8.74925877 L77.8575128,8.77651503 L77.8575128,5.63295996 L77.8575128,2.48940488 L78.4934687,2.51666114 L79.1294246,2.5439174 L79.1657649,4.36100126 C79.1930201,6.29619556 79.2657008,6.6414415 79.7017849,7.12296872 C79.9834225,7.43187298 80.5648679,7.6771793 81.0191221,7.6771793 L81.4097807,7.6771793 L81.3825254,8.29498781 L81.3552702,8.9037109 L81.0372922,8.92188174 C80.8646756,8.93096716 80.6012082,8.89462548 80.4467618,8.84011296 Z" id="路径" fill="#000000"></path>
                <path d="M86.4338322,8.80377129 C85.7161106,8.58572122 85.1255801,8.08602316 84.7803469,7.40461672 C83.8445832,5.56936202 84.4169435,3.36160514 86.0250034,2.57117366 C86.3793217,2.38946527 86.5882787,2.36220901 87.3968512,2.36220901 C88.2871894,2.36220901 88.3871253,2.38037985 88.8322945,2.62568617 C89.5318459,3.0163592 90.2041422,3.97032823 90.2132273,4.5699659 C90.2132273,4.76984512 90.185972,4.77893054 89.5681863,4.75167429 L88.9231453,4.72441803 L88.7959541,4.36100126 C88.6415077,3.90673029 88.241764,3.5342281 87.7602545,3.40703223 C87.0243627,3.20715301 86.2884709,3.56148436 85.9523228,4.27014706 C85.5616642,5.09692022 85.6161747,6.48698937 86.0613438,7.14113956 C86.406577,7.64992304 86.7063848,7.80437517 87.378681,7.84071684 C87.9056159,7.8679731 88.0328071,7.84071684 88.3053596,7.65900846 C88.4779762,7.54089801 88.7051033,7.27742085 88.8141243,7.08662704 L88.995826,6.72321027 L89.5863564,6.72321027 C90.1223764,6.72321027 90.1678018,6.74138111 90.1950571,6.93217491 C90.2404825,7.23199375 89.8498239,7.93157104 89.4500802,8.27681697 C89.2592934,8.44035452 88.9140602,8.64023374 88.677848,8.72200251 C88.0691474,8.94005258 86.9971075,8.97639425 86.4338322,8.80377129 Z" id="路径" fill="#000000"></path>
                <path d="M34.176428,6.29619556 C34.2036833,3.83404694 34.2036833,3.80679068 34.4398955,3.36160514 C34.7669585,2.72562579 35.3120636,2.39855069 36.1569764,2.33495276 C36.9564638,2.28044024 37.4379733,2.45306321 37.9376529,2.96184669 L38.2919712,3.32526346 L38.3373966,2.93459043 L38.382822,2.5439174 L39.0460332,2.51666114 L39.7001592,2.48940488 L39.681989,5.6057037 L39.6547338,8.72200251 L39.0006077,8.74925877 L38.3464817,8.77651503 L38.3192264,6.61418524 C38.2919712,4.72441803 38.273801,4.40642835 38.1193546,4.11569494 C37.7014407,3.26166552 36.2932526,3.07995714 35.7572327,3.79770526 C35.575531,4.04301158 35.5664459,4.19746371 35.5210205,6.38704976 L35.4755951,8.72200251 L34.8123839,8.74925877 L34.1491728,8.77651503 L34.176428,6.29619556 Z" id="路径" fill="#000000"></path>
                <path d="M41.2264534,5.03332228 L41.1991981,1.29921496 L40.9811561,1.12659199 C40.86305,1.0357378 40.6268378,0.953969025 40.4542212,0.953969025 L40.1453283,0.953969025 L40.1725836,0.481527222 L40.1998388,0 L40.8993903,0 C41.726133,0 41.9986855,0.145366709 42.3166635,0.781346059 C42.5165353,1.19018993 42.5256204,1.26287328 42.5528756,4.86069932 C42.5710458,6.8776624 42.5710458,8.58572122 42.5437906,8.64931916 C42.5074502,8.73108793 42.3075784,8.76742961 41.8714943,8.76742961 L41.2537086,8.76742961 L41.2264534,5.03332228 Z" id="路径" fill="#000000"></path>
                <path d="M44.1972759,8.64931916 C44.1700206,8.59480664 44.1609355,7.18656665 44.1700206,5.54210576 L44.1972759,2.5439174 L44.860487,2.51666114 L45.5146131,2.48940488 L45.5146131,5.63295996 L45.5146131,8.76742961 L44.8786572,8.76742961 C44.4425732,8.76742961 44.2245311,8.73108793 44.1972759,8.64931916 Z" id="路径" fill="#000000"></path>
                <path d="M82.1910979,8.70383168 C82.1547576,8.67657542 82.1275023,7.25925001 82.1275023,5.56936202 L82.1275023,2.4984903 L82.8088836,2.4984903 L83.490265,2.4984903 L83.490265,5.63295996 L83.490265,8.76742961 L82.8724792,8.76742961 C82.527246,8.76742961 82.2183532,8.74017335 82.1910979,8.70383168 Z" id="路径" fill="#000000"></path>
            </g>
        </g>
    </g>
</svg>